HIERARCHY
ROOT Hips
{
	OFFSET 0.000000 0.000000 0.000000 
	CHANNELS 6 Xposition Yposition Zposition Zrotation Yrotation Xrotation
	JOINT LeftUpLeg
	{
		OFFSET 1.363060 -1.794630 0.839290 
		CHANNELS 3 Zrotation Yrotation Xrotation
		JOINT LeftLeg
		{
			OFFSET 2.448110 -6.726130 0.000000 
			CHANNELS 3 Zrotation Yrotation Xrotation
			JOINT LeftFoot
			{
				OFFSET 2.562200 -7.039590 0.000000 
				CHANNELS 3 Zrotation Yrotation Xrotation
				JOINT LeftToeBase
				{
					OFFSET 0.157640 -0.433110 2.322550 
					CHANNELS 3 Zrotation Yrotation Xrotation
					End Site
					{
						OFFSET 0.000000 0.000000 0.000000 
					}
				}
			}
		}
	}
	JOINT RightUpLeg
	{
		OFFSET -1.305520 -1.794630 0.839290 
		CHANNELS 3 Zrotation Yrotation Xrotation
		JOINT RightLeg
		{
			OFFSET -2.542530 -6.985550 0.000000 
			CHANNELS 3 Zrotation Yrotation Xrotation
			JOINT RightFoot
			{
				OFFSET -2.568260 -7.056230 0.000000 
				CHANNELS 3 Zrotation Yrotation Xrotation
				JOINT RightToeBase
				{
					OFFSET -0.164730 -0.452590 2.363150 
					CHANNELS 3 Zrotation Yrotation Xrotation
					End Site
					{
						OFFSET 0.000000 0.000000 0.000000 
					}
				}
			}
		}
	}
	JOINT Spine
	{
		OFFSET 0.028270 2.035590 -0.193380 
		CHANNELS 3 Zrotation Yrotation Xrotation
		JOINT Spine1
		{
			OFFSET 0.056720 2.048850 -0.042750 
			CHANNELS 3 Zrotation Yrotation Xrotation
			JOINT Neck1
			{
				OFFSET -0.054170 1.746240 0.172020 
				CHANNELS 3 Zrotation Yrotation Xrotation
				JOINT Head
				{
					OFFSET 0.104070 1.761360 -0.123970 
					CHANNELS 3 Zrotation Yrotation Xrotation
					End Site
					{
						OFFSET 0.000000 0.000000 0.000000 
					}
				}
			}
			JOINT LeftArm
			{
				OFFSET 3.362410 1.200890 -0.311210 
				CHANNELS 3 Zrotation Yrotation Xrotation
				JOINT LeftForeArm
				{
					OFFSET 4.983000 -0.000000 -0.000000 
					CHANNELS 3 Zrotation Yrotation Xrotation
					JOINT LeftHand
					{
						OFFSET 3.483560 -0.000000 -0.000000 
						CHANNELS 3 Zrotation Yrotation Xrotation
						JOINT LeftHandIndex1
						{
							OFFSET 0.715260 -0.000000 -0.000000 
							CHANNELS 3 Zrotation Yrotation Xrotation
							End Site
							{
								OFFSET 0.000000 0.000000 0.000000 
							}
						}
					}
				}
			}
			JOINT RightArm
			{
				OFFSET -3.136600 1.374050 -0.404650 
				CHANNELS 3 Zrotation Yrotation Xrotation
				JOINT RightForeArm
				{
					OFFSET -5.241900 -0.000000 -0.000000 
					CHANNELS 3 Zrotation Yrotation Xrotation
					JOINT RightHand
					{
						OFFSET -3.444170 -0.000000 -0.000000 
						CHANNELS 3 Zrotation Yrotation Xrotation
						JOINT RightHandIndex1
						{
							OFFSET -0.622530 -0.000000 -0.000000 
							CHANNELS 3 Zrotation Yrotation Xrotation
							End Site
							{
								OFFSET 0.000000 0.000000 0.000000 
							}
						}
					}
				}
			}
		}
	}
}
MOTION
Frames: 12
Frame Time: 0.041667
-1.175150 17.898679 5.140654 40.146887 -83.607617 -14.002456 -32.737844 -2.249584 -15.392132 -1.813507 -0.220975 1.012450 -1.442125 7.694537 1.748788 1.309500 7.248800 20.454500 -6.743554 16.557362 -6.195628 0.070988 -5.130014 13.742885 5.043198 -19.331398 -14.540808 -5.750100 -14.181700 43.970200 -1.115787 1.747932 -27.000940 -2.183130 0.392096 -6.802226 3.753522 22.761421 8.124258 0.578100 11.644500 5.879800 33.008479 -3.194377 -37.809701 14.100713 -23.625673 -3.214397 0.785193 -0.383509 -38.516491 -7.125000 0.000000 0.000000 -33.974857 -24.777956 -18.810100 -135.071580 51.070436 -96.361865 1.546745 -0.560072 -63.137317 7.125000 0.000000 0.000000 
-1.175967 17.901132 5.141778 39.781898 -83.639411 -13.708195 -32.673110 -2.190991 -15.337873 -1.813409 -0.221376 1.017167 -1.440190 7.681964 1.702263 1.364900 7.394300 20.888800 -6.657835 16.561390 -6.124427 0.068155 -5.123972 13.707338 5.284673 -20.027368 -14.354473 -5.616400 -14.046000 43.421900 -0.845817 1.872554 -27.063732 -2.166502 0.442042 -6.882980 3.764601 22.784803 7.939644 0.591300 11.636200 5.707300 32.728499 -3.362057 -37.988256 14.061497 -23.513999 -3.185935 0.788433 -0.376366 -38.225543 -7.125000 0.000000 0.000000 -34.523439 -24.593898 -18.766570 -135.118976 51.145083 -96.381584 1.544479 -0.562165 -63.389760 7.125000 0.000000 0.000000 
-1.177500 17.903175 5.142494 39.760441 -83.675975 -13.737549 -32.638297 -2.122529 -15.309436 -1.812340 -0.222206 1.019068 -1.430328 7.647973 1.783793 1.309300 7.248200 20.452800 -6.623175 16.658314 -6.131171 0.073040 -5.164653 13.874093 4.823472 -18.737525 -14.934707 -6.011000 -14.439000 45.025800 -0.956848 1.979673 -27.015578 -2.230827 0.509871 -6.841770 3.700238 22.650971 7.905069 0.572900 11.564800 5.707000 32.767471 -3.637329 -38.466447 14.039066 -23.457958 -3.171509 0.783390 -0.376634 -37.946004 -7.125000 0.000000 0.000000 -34.680285 -24.882898 -18.762183 -135.111109 51.178059 -96.339865 1.518482 -0.587839 -63.664253 7.125000 0.000000 0.000000 
-1.177398 17.905526 5.145151 39.342669 -83.641561 -13.316693 -32.599773 -2.145569 -15.298532 -1.812233 -0.222691 1.009984 -1.459850 7.783755 2.041900 1.041500 6.490500 18.214400 -6.586980 16.664439 -6.171572 0.085411 -5.198072 14.054756 3.826824 -15.938805 -15.944762 -6.632500 -15.014500 47.470400 -1.032475 2.014350 -26.973458 -2.260680 0.533577 -6.788254 3.671011 22.557010 7.970547 0.573800 11.519300 5.762200 32.803194 -3.663042 -38.491552 14.052783 -23.480208 -3.177926 0.783205 -0.376582 -38.178119 -7.125000 0.000000 0.000000 -34.719006 -25.208228 -18.695915 -134.945052 51.247915 -96.200545 1.519886 -0.576446 -63.822941 7.125000 0.000000 0.000000 
-1.177092 17.905628 5.145049 39.578938 -83.604095 -13.528374 -32.671075 -2.187435 -15.287063 -1.811815 -0.222281 1.002199 -1.498255 7.947815 2.189491 0.832900 5.822300 16.269600 -6.631173 16.544348 -6.274081 0.074575 -5.237753 14.180666 3.559328 -15.180233 -16.121768 -6.807000 -15.167200 48.140600 -1.048359 2.032836 -26.987644 -2.231922 0.550148 -6.780590 3.662782 22.530030 7.987650 0.581100 11.502900 5.762600 32.797528 -3.748161 -38.559143 13.984240 -23.371563 -3.148015 0.785093 -0.386466 -38.230198 -7.125000 0.000000 0.000000 -34.787314 -25.374280 -18.591332 -134.816097 51.301310 -96.113449 1.542493 -0.526762 -63.853650 7.125000 0.000000 0.000000 
-1.177705 17.905424 5.143107 39.862073 -83.630805 -13.835074 -32.705750 -2.140081 -15.255145 -1.811035 -0.222493 1.005318 -1.508144 7.981611 2.150032 0.826300 5.799600 16.203900 -6.644537 16.465048 -6.345262 0.063643 -5.269689 14.259869 3.622410 -15.349135 -16.009674 -6.807000 -15.167200 48.140500 -0.982525 1.996472 -27.023947 -2.244485 0.521818 -6.828583 3.522961 22.649388 7.841419 0.518300 11.550000 5.684900 32.740197 -3.616506 -38.347712 13.940920 -23.314071 -3.131429 0.787607 -0.391861 -38.252315 -7.125000 0.000000 0.000000 -34.858540 -25.134461 -18.629499 -134.793604 51.334135 -96.091678 1.543609 -0.524089 -63.857261 7.125000 0.000000 0.000000 
-1.177092 17.905015 5.144129 39.742763 -83.647715 -13.763003 -32.679848 -2.092508 -15.212217 -1.810542 -0.223655 1.009052 -1.508610 7.978544 2.129922 0.848600 5.875400 16.423500 -6.611952 16.432748 -6.357525 0.059206 -5.289369 14.319009 3.519500 -15.054006 -16.052530 -6.779000 -15.143000 48.033500 -1.004827 1.975639 -27.003529 -2.301005 0.505198 -6.829446 3.428535 22.707203 7.797876 0.475200 11.576000 5.685400 32.795970 -3.522242 -38.216683 13.941628 -23.334451 -3.135217 0.782055 -0.387864 -38.267116 -7.125000 0.000000 0.000000 -34.824966 -25.063084 -18.677660 -134.790524 51.336731 -96.081156 1.536603 -0.538785 -63.856265 7.125000 0.000000 0.000000 
-1.174230 17.905935 5.145151 38.971368 -83.655305 -12.978133 -32.574937 -2.094524 -15.242936 -1.811783 -0.223512 1.007218 -1.517969 8.017702 2.167711 0.812700 5.752700 16.068600 -6.502650 16.416815 -6.406272 0.061108 -5.295898 14.338643 3.359059 -14.590053 -16.107553 -6.814800 -15.174000 48.170500 -0.992484 1.907318 -27.007407 -2.363466 0.450596 -6.840692 3.511561 22.766092 7.874987 0.497200 11.615500 5.727300 32.896566 -3.291845 -37.848370 13.976841 -23.428228 -3.157635 0.773185 -0.375084 -38.464861 -7.125000 0.000000 0.000000 -34.554924 -24.989369 -18.843017 -134.825880 51.289263 -96.107437 1.526573 -0.549075 -63.607567 7.125000 0.000000 0.000000 
-1.173412 17.907979 5.144538 38.911499 -83.692607 -12.872341 -32.546192 -2.080614 -15.304943 -1.812329 -0.222422 1.007675 -1.507191 7.975501 2.143658 0.837300 5.837100 16.312500 -6.485450 16.427638 -6.486416 0.061318 -5.304470 14.355478 3.321520 -14.487391 -16.146474 -6.899700 -15.246800 48.493900 -0.917453 1.751379 -27.040993 -2.346681 0.350809 -6.862864 3.821464 22.902128 7.892611 0.591100 11.700300 5.692000 32.951165 -2.799680 -37.169694 14.048489 -23.591000 -3.199130 0.768783 -0.362193 -38.851891 -7.125000 0.000000 0.000000 -34.196230 -24.659052 -19.224938 -134.839232 51.248736 -96.125161 1.520985 -0.552075 -63.206280 7.125000 0.000000 0.000000 
-1.175559 17.907468 5.145151 40.429310 -83.739366 -14.399000 -32.729300 -2.024208 -15.293290 -1.809975 -0.221650 1.013041 -1.487307 7.892092 2.049395 0.901600 6.051500 16.933900 -6.670187 16.441146 -6.506705 0.051810 -5.321508 14.398554 3.455003 -14.875832 -16.111977 -6.855100 -15.208600 48.324100 -0.862696 1.741129 -27.056107 -2.253489 0.359569 -6.863184 4.334017 22.949965 7.831227 0.784100 11.733500 5.547200 32.832340 -2.608905 -36.925078 14.099694 -23.661841 -3.220280 0.779540 -0.364551 -38.967943 -7.125000 0.000000 0.000000 -34.307669 -24.506113 -19.322318 -134.831626 51.287629 -96.103510 1.511523 -0.545031 -63.327057 7.125000 0.000000 0.000000 
-1.176478 17.906241 5.144538 41.165432 -83.782773 -15.166580 -32.816082 -1.979431 -15.301698 -1.808830 -0.219798 1.013565 -1.493641 7.918748 2.047516 0.894200 6.027200 16.863400 -6.739782 16.512823 -6.487764 0.044516 -5.336720 14.442650 3.543584 -15.129143 -16.060277 -6.739300 -15.108400 47.881300 -0.821775 1.902463 -27.062780 -2.202653 0.461620 -6.859653 4.518001 22.833519 7.776986 0.874600 11.669500 5.453900 32.691882 -2.889854 -37.531384 14.099806 -23.599785 -3.210599 0.796295 -0.390867 -38.797011 -7.125000 0.000000 0.000000 -34.747616 -24.715743 -19.006522 -134.830349 51.347427 -96.086673 1.509092 -0.555080 -63.863278 7.125000 0.000000 0.000000 
-1.176376 17.905628 5.142392 41.064536 -83.834880 -15.088183 -32.786610 -1.939118 -15.333152 -1.808766 -0.217813 1.010850 -1.505949 7.976369 2.139175 0.846300 5.867500 16.400600 -6.698926 16.608737 -6.472140 0.042316 -5.343532 14.465777 3.532658 -15.086807 -16.005360 -6.698500 -15.072700 47.724700 -0.694404 1.993430 -27.067739 -2.156537 0.507916 -6.866682 4.435419 22.749471 7.690314 0.852000 11.616900 5.404200 32.609477 -3.054700 -38.334010 14.084656 -23.529045 -3.198230 0.803647 -0.425353 -38.705594 -7.125000 0.000000 0.000000 -34.981251 -24.780980 -18.915132 -134.912440 51.333708 -96.164387 1.521190 -0.553123 -64.000773 7.125000 0.000000 0.000000 
